<svg xmlns="http://www.w3.org/2000/svg" viewBox="0 0 169.23 200"><defs><style>.cls-1{fill:#333;}</style></defs><g id="Layer_2" data-name="Layer 2"><g id="Layer_1-2" data-name="Layer 1"><path class="cls-1" d="M111.68,10.81c-16.89,6.65-35,15.71-55.27,25.25C46.15,48.87,43.59,77.05,41,97.54L69.23,61.68,94.87,87.29c-12.82,15.37-25.64,25.62-20.51,33.3,5.13,5.12,12.82,2.56,20.51-5.12,23-20.45,38.46-28.18,38.46-53.79l35.9-18V.09C151.58-.75,127.4,4.68,111.68,10.8Zm-42,58.63L45,100.74a5.33,5.33,0,0,1-7.37.72L0,148.77l42.15,38.42H72.43l58.34-66.6L115.14,105c-5,4.31-10.58,8.77-16.66,14.16l-.17.16c-4.19,4.16-8.52,7.19-13.3,8.49a14.83,14.83,0,0,1-14.26-3.52,5.56,5.56,0,0,1-.64-.81,12.79,12.79,0,0,1-1.44-10.56,29,29,0,0,1,5.13-9.21c3.71-4.85,8.93-10.37,14-16.17ZM0,189.64v10.25l148.71.11V189.75Z"/></g></g></svg>