<svg xmlns="http://www.w3.org/2000/svg" viewBox="0 0 236.45 183.64"><defs><style>.cls-1{fill:#333;}</style></defs><g id="Layer_2" data-name="Layer 2"><g id="Layer_1-2" data-name="Layer 1"><path class="cls-1" d="M138.69,138.05a45.72,45.72,0,0,1-1.43,11.35H159.2l46.55-53.15L193.28,83.79c-4,3.44-8.44,7-13.3,11.31l-.13.12c-3.35,3.32-6.8,5.74-10.61,6.77a11.82,11.82,0,0,1-11.39-2.81,4,4,0,0,1-.51-.64,10.22,10.22,0,0,1-1.15-8.43,23.12,23.12,0,0,1,4.1-7.34c3-3.88,7.12-8.28,11.19-12.91L157,55.42l-19.69,25a4.27,4.27,0,0,1-5.89.58L116.94,99.2A45.6,45.6,0,0,1,138.69,138.05Z"/><polygon class="cls-1" points="38.59 140.54 0 140.45 0 148.63 38.59 148.72 38.59 140.54"/><polygon class="cls-1" points="38.59 124.45 0 124.36 0 132.53 38.59 132.63 38.59 124.45"/><polygon class="cls-1" points="44.22 108.35 5.63 108.26 5.63 116.44 44.22 116.53 44.22 108.35"/><polygon class="cls-1" points="6.04 165.84 44.63 165.93 44.63 157.75 6.04 157.66 6.04 165.84"/><path class="cls-1" d="M190.52,8.62h0C177,13.94,162.61,21.16,146.41,28.78,138.22,39,136.18,61.49,134.13,77.84l22.51-28.62L177.1,69.67c-10.23,12.26-20.46,20.44-16.37,26.57,4.1,4.09,10.23,2.05,16.37-4.09,18.38-16.31,30.7-22.48,30.7-42.93l28.65-14.4V.07C222.37-.6,203.07,3.73,190.52,8.62Z"/><polygon class="cls-1" points="91.76 143.4 96.46 136.71 72.29 119.63 67.59 126.32 91.76 143.4"/><path class="cls-1" d="M133.28,159.55l86.8.07v-8.18l-83.39-.06A44.85,44.85,0,0,1,133.28,159.55Z"/><path class="cls-1" d="M137.26,149.4H135l-4-3.63a37.11,37.11,0,0,1-1.59,5.6h7.23Q137,150.39,137.26,149.4Z"/><path class="cls-1" d="M93.09,92.45h0a3.42,3.42,0,0,0-3.43,3.43v21h3.43l3.42,0V99.46a38.45,38.45,0,0,1,16.11,5.16l4.31-5.42A45.32,45.32,0,0,0,93.09,92.45Z"/><path class="cls-1" d="M93.09,176.78a38.78,38.78,0,0,1-38.74-38.73c0-12.33,8.29-26.37,18.26-33.65A19.91,19.91,0,0,0,71,101.94,15,15,0,0,0,68.4,99c-11.73,8.57-20.91,24.52-20.91,39a45.59,45.59,0,0,0,85.79,21.5h-8A38.72,38.72,0,0,1,93.09,176.78Z"/><path class="cls-1" d="M129.46,151.37a38,38,0,0,1-4.17,8.18h8a44.85,44.85,0,0,0,3.41-8.17Z"/><path class="cls-1" d="M137.26,149.4a45.61,45.61,0,0,0-20.32-50.2l-4.31,5.42a38.69,38.69,0,0,1,18.42,41.15l4,3.63Z"/></g></g></svg>